<svg width="24" height="24" viewBox="0 0 24 24" fill="none" xmlns="http://www.w3.org/2000/svg">
    <path fill-rule="evenodd" clip-rule="evenodd" d="M9.69531 3.12702C8.46399 3.74819 7.452 4.27264 7.45584 4.29496C7.45584 4.35075 10.4149 5.79766 10.5188 5.79394C10.5649 5.79394 10.9112 5.63772 11.2883 5.45174L11.9733 5.11326L12.7197 5.48522L13.4662 5.85717L14.6899 5.32527C16.5291 4.52557 16.7215 4.4363 16.6908 4.41027C16.6523 4.36935 15.9904 4.02715 14.1973 3.11586C13.3316 2.67696 12.4927 2.24177 12.3311 2.15622C12.1695 2.06695 12.0156 2 11.9886 2C11.9617 2 10.9266 2.50586 9.69531 3.12702ZM4.28904 5.83485L3.00385 6.47461V9.28659C3.00385 10.8339 3.01924 12.0986 3.04233 12.0986C3.06157 12.0986 3.69262 11.8345 4.4468 11.5109L5.8128 10.9232V7.95871L6.47848 8.30835C6.9941 8.57988 7.50587 8.84768 8.02148 9.11921L8.8988 9.57672L9.28744 9.40562C9.5337 9.29775 9.77612 9.18988 10.0185 9.08201C10.2071 8.99647 10.6688 8.79561 11.0459 8.63567C11.423 8.47573 11.7693 8.31207 11.8193 8.27488C11.8848 8.22652 11.0844 7.79877 8.86032 6.69407C7.18265 5.86089 5.75508 5.18393 5.68967 5.18765C5.62425 5.19137 4.9932 5.48149 4.28904 5.83485ZM16.9178 6.01339C16.0443 6.3965 15.3286 6.72382 15.3286 6.74242C15.3286 6.76102 15.8057 7.03626 16.3868 7.35243C16.9717 7.66859 17.4449 7.94383 17.4449 7.96615C17.4449 7.98847 16.9293 8.23024 16.2983 8.50177C15.6672 8.77701 14.0742 9.47257 12.7544 10.0491L8.34086 11.9795C7.22882 12.4631 6.22837 12.902 6.11678 12.9503C3.85038 13.9435 3.22318 14.2187 3.13852 14.2671C3.05387 14.3154 3.03463 14.5907 3.01924 15.9781L3 17.6333L4.14667 18.1986L5.29334 18.764L6.88636 18.0684C7.75983 17.6853 8.47938 17.3543 8.47938 17.3282C8.47938 17.3022 8.31777 17.2018 8.12153 17.1014C7.92529 17.0009 7.51741 16.7778 7.21343 16.6067C6.91329 16.4356 6.61316 16.2793 6.54775 16.257C6.48233 16.2347 6.42846 16.2012 6.42846 16.1752C6.42846 16.1529 7.12878 15.8293 7.98685 15.461C9.64914 14.7432 10.9189 14.189 13.6471 12.995C14.8669 12.4631 16.0866 11.9275 17.3103 11.3956C18.3838 10.9269 19.6305 10.3801 20.0807 10.1793L20.9003 9.81477L20.9196 8.14097L20.9388 6.46717L19.7768 5.89437C19.138 5.5782 18.5878 5.31784 18.5608 5.31784C18.53 5.31784 17.7913 5.634 16.9178 6.01339ZM20.5925 12.0539C20.4194 12.1358 20.0807 12.2883 19.8383 12.3924C19.5959 12.4966 19.1342 12.6974 18.8148 12.8388L18.2338 13.0954L18.2222 14.5646C18.2145 15.3718 18.1837 16.0301 18.153 16.0264C18.0837 16.0152 16.9947 15.4759 15.8981 14.9068C15.1054 14.4977 15.0554 14.4791 14.8707 14.5683C14.763 14.6204 14.1204 14.8994 13.4431 15.1858C12.7659 15.4759 12.1887 15.7288 12.1618 15.7549C12.1349 15.7772 13.497 16.4914 15.1939 17.3431L18.2722 18.8905L19.5882 18.2321C20.3116 17.8713 20.9273 17.5403 20.9542 17.4993C21.0196 17.4064 21.0119 11.894 20.9504 11.9014C20.9234 11.9052 20.7618 11.9721 20.5925 12.0539ZM13.3046 18.5222C13.0776 18.6152 12.8467 18.7119 12.6197 18.8086C11.9309 19.095 12.0656 19.1062 11.246 18.7119C10.6996 18.4478 10.4649 18.3697 10.361 18.4069C10.284 18.4367 9.62605 18.7231 8.89495 19.043C8.1677 19.3628 7.54435 19.6269 7.51356 19.6269C7.20573 19.6269 7.7175 19.9208 9.67992 20.8767L11.981 22L12.9506 21.5388C13.4816 21.2858 14.559 20.7763 15.3363 20.408C16.1174 20.0398 16.7446 19.7311 16.7331 19.7162C16.7215 19.705 16.0674 19.3814 15.2786 18.9946L13.8472 18.2953L13.3046 18.5222Z" fill="white"/>
</svg>
