<svg width="24" height="24" viewBox="0 0 24 24" fill="none" xmlns="http://www.w3.org/2000/svg">
    <path fill-rule="evenodd" clip-rule="evenodd" d="M9.43924 2.23972C8.0711 2.923 6.94666 3.49991 6.95094 3.52446C6.95094 3.58583 10.2387 5.17742 10.3542 5.17333C10.4055 5.17333 10.7903 5.00149 11.2093 4.79691L11.9703 4.42459L12.7997 4.83374L13.6291 5.24289L14.9887 4.6578C17.0324 3.77813 17.2462 3.67993 17.212 3.65129C17.1692 3.60629 16.4338 3.22987 14.4415 2.22745C13.4795 1.74465 12.5475 1.26595 12.3679 1.17184C12.1883 1.07365 12.0173 1 11.9874 1C11.9575 1 10.8074 1.55644 9.43924 2.23972ZM3.43227 5.21834L2.00428 5.92208V9.01525C2.00428 10.7173 2.02138 12.1084 2.04703 12.1084C2.06841 12.1084 2.76958 11.8179 3.60756 11.462L5.12533 10.8155V7.55458L5.86498 7.93918C6.43789 8.23786 7.00652 8.53245 7.57943 8.83113L8.55422 9.33439L8.98604 9.14618C9.25967 9.02752 9.52902 8.90887 9.79837 8.79022C10.0079 8.69611 10.5209 8.47517 10.9399 8.29924C11.3589 8.1233 11.7437 7.94328 11.7993 7.90236C11.872 7.84917 10.9827 7.37865 8.51147 6.16347C6.64738 5.24698 5.0612 4.50233 4.98852 4.50642C4.91584 4.51051 4.21467 4.82964 3.43227 5.21834ZM17.4642 5.41473C16.4937 5.83615 15.6985 6.19621 15.6985 6.21666C15.6985 6.23712 16.2286 6.53989 16.8742 6.88767C17.5241 7.23545 18.0499 7.53822 18.0499 7.56277C18.0499 7.58732 17.477 7.85326 16.7759 8.15194C16.0747 8.45471 14.3047 9.21982 12.8382 9.85401L7.93429 11.9775C6.69869 12.5094 5.58708 12.9922 5.46309 13.0454C2.94487 14.1378 2.24797 14.4406 2.15392 14.4938C2.05986 14.547 2.03848 14.8497 2.02138 16.3759L2 18.1966L3.27408 18.8185L4.54815 19.4404L6.31818 18.6753C7.2887 18.2539 8.0882 17.8897 8.0882 17.8611C8.0882 17.8324 7.90863 17.722 7.69059 17.6115C7.47254 17.501 7.01935 17.2555 6.68159 17.0673C6.3481 16.8791 6.01462 16.7073 5.94194 16.6827C5.86926 16.6582 5.8094 16.6213 5.8094 16.5927C5.8094 16.5682 6.58753 16.2122 7.54095 15.8071C9.38793 15.0175 10.7988 14.4078 13.8301 13.0945C15.1854 12.5094 16.5407 11.9202 17.9003 11.3351C19.0931 10.8196 20.4784 10.2182 20.9786 9.99721L21.8893 9.59624L21.9106 7.75507L21.932 5.91389L20.6408 5.2838C19.9311 4.93602 19.3197 4.64962 19.2898 4.64962C19.2556 4.64962 18.4347 4.99739 17.4642 5.41473ZM21.5472 12.0593C21.3548 12.1493 20.9786 12.3171 20.7092 12.4317C20.4399 12.5462 19.9268 12.7672 19.572 12.9226L18.9264 13.2049L18.9136 14.8211C18.905 15.7089 18.8708 16.4331 18.8366 16.429C18.7597 16.4168 17.5497 15.8235 16.3312 15.1975C15.4505 14.7474 15.3949 14.727 15.1897 14.8252C15.07 14.8825 14.356 15.1893 13.6035 15.5044C12.851 15.8235 12.2097 16.1017 12.1798 16.1304C12.1499 16.1549 13.6634 16.9405 15.5488 17.8774L18.9692 19.5795L20.4313 18.8553C21.2351 18.4584 21.9192 18.0943 21.9491 18.0493C22.0218 17.947 22.0133 11.8834 21.9448 11.8916C21.9149 11.8957 21.7354 11.9693 21.5472 12.0593ZM13.4496 19.1744C13.1973 19.2767 12.9408 19.3831 12.6886 19.4895C11.9233 19.8045 12.0729 19.8168 11.1622 19.3831C10.5551 19.0926 10.2943 19.0067 10.1789 19.0476C10.0934 19.0803 9.36228 19.3954 8.54995 19.7473C7.74189 20.0991 7.04927 20.3896 7.01507 20.3896C6.67304 20.3896 7.24167 20.7129 9.42213 21.7644L11.9788 23L13.0562 22.4927C13.6463 22.2144 14.8434 21.6539 15.707 21.2488C16.5749 20.8438 17.2718 20.5042 17.259 20.4878C17.2462 20.4755 16.5193 20.1196 15.6429 19.6941L14.0524 18.9249L13.4496 19.1744Z" fill="#F3BA2F"/>
</svg>
